<?xml version="1.0" standalone="no"?>
<!DOCTYPE svg PUBLIC "-//W3C//DTD SVG 20010904//EN"
 "http://www.w3.org/TR/2001/REC-SVG-20010904/DTD/svg10.dtd">
<svg version="1.0" xmlns="http://www.w3.org/2000/svg"
 width="800.000000pt" height="800.000000pt" viewBox="0 0 800.000000 800.000000"
 preserveAspectRatio="xMidYMid meet">
<metadata>
Created by potrace 1.11, written by Peter Selinger 2001-2013
</metadata>
<g transform="translate(0.000000,800.000000) scale(0.100000,-0.100000)"
fill="#000000" stroke="none">
<path d="M0 4000 l0 -4000 1120 0 c790 0 1120 3 1120 11 0 6 -7 17 -15 25 -19
20 -19 44 0 44 9 0 15 -9 15 -25 0 -22 4 -25 40 -25 29 0 40 -4 40 -15 0 -8 5
-15 10 -15 6 0 10 18 10 40 0 22 -4 40 -10 40 -5 0 -10 4 -10 9 0 12 -59 71
-71 71 -5 0 -9 10 -9 22 0 12 -7 29 -16 39 -9 10 -14 25 -11 34 8 19 27 20 27
0 0 -8 6 -15 14 -15 8 0 16 -7 20 -15 5 -14 46 -22 46 -9 0 4 -8 28 -17 55
-17 48 -45 66 -56 37 -3 -7 -6 0 -6 15 -1 16 -7 35 -13 42 -33 37 -39 46 -33
55 10 16 45 12 45 -5 0 -8 6 -15 14 -15 8 0 16 -7 20 -15 3 -8 15 -15 26 -15
15 0 20 -7 20 -25 0 -14 5 -25 10 -25 6 0 10 18 10 40 0 22 -4 40 -10 40 -5 0
-10 7 -10 15 0 8 -5 15 -10 15 -6 0 -16 11 -22 25 -6 14 -19 25 -30 25 -12 0
-18 7 -18 24 0 13 -4 26 -10 28 -14 5 -17 50 -3 55 7 3 13 -2 13 -11 0 -9 6
-16 14 -16 8 0 16 -7 20 -15 6 -16 46 -21 46 -5 0 5 7 7 15 4 8 -4 15 -1 15 5
0 6 -7 11 -15 11 -8 0 -15 7 -15 15 0 8 -4 15 -10 15 -5 0 -17 15 -26 32 -9
18 -27 42 -40 54 -26 23 -36 64 -17 71 7 3 13 -2 13 -11 0 -10 9 -16 24 -16
13 0 26 -7 30 -15 3 -8 15 -15 26 -15 11 0 20 7 20 15 0 8 -4 15 -10 15 -5 0
-10 6 -10 14 0 8 -7 16 -15 20 -8 3 -15 15 -15 26 0 11 -7 20 -15 20 -9 0 -21
11 -27 25 -6 14 -15 25 -19 25 -4 0 -10 14 -14 31 -8 36 10 64 25 39 7 -12 12
-12 22 -2 10 10 8 23 -7 67 -15 45 -22 55 -41 55 -17 0 -24 7 -29 30 -4 17
-15 36 -26 43 -10 6 -19 17 -19 24 0 18 39 16 46 -2 4 -8 13 -15 20 -15 8 0
20 -11 26 -25 15 -34 33 -26 32 13 -1 22 -13 42 -38 65 -20 19 -36 42 -36 51
0 9 -7 19 -15 22 -8 4 -15 12 -15 20 0 8 -7 14 -15 14 -8 0 -15 5 -15 11 0 6
6 9 14 6 8 -3 17 -1 20 6 3 8 9 7 19 -5 8 -10 24 -18 35 -18 23 0 52 -35 52
-62 0 -13 8 -18 26 -18 24 0 24 1 10 22 -9 12 -16 30 -16 40 0 10 -7 18 -15
18 -8 0 -15 5 -15 11 0 6 -16 25 -35 43 -19 19 -35 41 -35 50 0 9 -7 19 -15
22 -8 4 -15 12 -15 20 0 8 -4 14 -10 14 -5 0 -10 7 -10 15 0 20 39 20 46 0 4
-8 17 -15 30 -15 13 0 24 -5 24 -11 0 -12 29 -38 41 -39 4 0 9 10 12 21 4 16
-2 29 -25 48 -66 56 -76 67 -79 86 -3 11 -14 21 -26 23 -15 2 -24 13 -28 34
-10 45 9 57 39 25 14 -15 34 -27 46 -27 11 0 20 -7 20 -15 0 -17 35 -21 45 -5
3 6 -1 17 -9 26 -9 8 -16 19 -16 23 0 4 -11 13 -25 19 -14 7 -25 20 -25 31 0
11 -11 28 -25 39 -14 11 -25 24 -25 30 0 6 -4 12 -10 14 -5 1 -16 20 -25 40
l-15 38 25 0 c20 0 25 -5 25 -25 0 -22 4 -25 40 -25 36 0 40 -2 40 -25 0 -16
6 -25 15 -25 19 0 19 34 0 50 -8 7 -15 21 -15 31 0 11 -4 19 -9 19 -12 0 -71
59 -71 70 0 5 -4 10 -10 12 -5 2 -16 20 -25 41 l-15 37 25 0 c20 0 25 -5 25
-25 0 -18 5 -25 20 -25 11 0 23 -7 26 -15 4 -8 17 -15 30 -15 24 0 32 14 14
25 -5 3 -10 17 -10 31 0 19 -5 24 -25 24 -22 0 -25 4 -25 40 0 34 -3 40 -21
40 -39 0 -13 25 29 28 33 2 42 0 42 -12 0 -9 7 -16 15 -16 19 0 19 24 0 44 -8
8 -15 19 -15 24 0 6 -4 12 -10 14 -5 2 -16 20 -25 41 l-15 37 25 0 c16 0 25
-6 25 -15 0 -11 11 -15 40 -15 38 0 40 -2 40 -30 0 -22 4 -28 15 -24 19 8 19
28 0 48 -8 8 -15 24 -15 35 0 19 -53 81 -71 81 -5 0 -9 7 -9 15 0 11 11 15 40
15 38 0 40 -2 40 -30 0 -29 1 -30 50 -30 38 0 50 4 50 15 0 9 -9 15 -25 15
-22 0 -25 4 -25 40 0 36 -2 40 -25 40 -18 0 -25 5 -25 20 0 11 -6 23 -14 26
-24 9 -28 34 -6 34 11 0 20 -4 20 -9 0 -12 59 -71 71 -71 5 0 9 -7 9 -15 0
-11 12 -15 50 -15 38 0 50 4 50 15 0 8 -4 15 -10 15 -5 0 -10 6 -10 14 0 8 -7
16 -15 20 -8 3 -15 15 -15 26 0 15 -7 20 -25 20 -14 0 -25 5 -25 10 0 6 18 10
40 10 36 0 40 -2 40 -25 0 -22 4 -25 39 -25 22 0 41 -5 43 -12 6 -17 28 0 28
23 0 10 -6 19 -13 19 -11 0 -37 51 -37 73 0 14 48 7 54 -8 3 -8 15 -15 26 -15
15 0 20 -7 20 -25 0 -22 4 -25 40 -25 41 0 57 21 25 34 -8 3 -15 14 -15 25 0
11 -5 21 -12 23 -17 6 0 28 23 28 10 0 19 -7 19 -15 0 -11 11 -15 40 -15 41 0
57 21 25 34 -8 3 -15 17 -15 31 0 14 -4 25 -8 25 -5 0 -17 6 -27 14 -18 13
-17 14 10 9 24 -4 27 -2 15 7 -12 9 -10 10 9 5 15 -5 21 -3 17 3 -3 6 -3 13 2
16 4 2 9 -4 9 -15 1 -10 -5 -19 -13 -19 -19 0 -18 -16 2 -24 8 -3 12 -2 9 4
-3 6 3 10 14 10 35 0 53 28 46 74 l-6 41 16 -35 c20 -44 22 -45 40 -30 12 10
19 10 27 2 22 -22 28 -13 28 38 0 38 -4 50 -15 50 -17 0 -20 35 -4 46 6 3 15
0 20 -7 7 -11 9 -9 10 6 1 14 4 10 9 -10 l8 -30 1 37 c0 20 5 39 9 42 5 3 5
-23 0 -57 -5 -34 -7 -76 -4 -94 4 -26 1 -33 -17 -39 -21 -7 -21 -7 -2 -14 11
-4 53 -5 93 -3 58 3 72 1 67 -9 -9 -18 24 23 36 44 12 22 -10 37 -25 17 -6 -8
-16 -15 -21 -16 -6 -1 -27 -4 -47 -8 l-38 -7 0 51 c0 31 4 51 11 51 7 0 9 8 4
23 -4 12 -9 37 -11 56 l-3 34 41 -6 c35 -5 39 -4 27 9 -8 8 -33 15 -56 16 -33
1 -40 5 -36 17 3 11 0 10 -12 -4 -9 -11 -18 -19 -20 -17 -13 6 -16 0 -6 -12 9
-10 8 -15 -1 -19 -20 -7 -20 84 -1 98 11 8 13 20 8 43 -3 18 -11 32 -16 32 -5
0 -9 11 -9 25 0 16 -6 25 -15 25 -20 0 -20 39 0 46 8 4 15 14 15 23 1 10 6 6
16 -11 17 -33 29 -35 44 -9 14 27 13 31 -9 31 -12 0 -21 9 -25 25 -4 14 -11
25 -16 25 -6 0 -10 7 -10 15 0 8 -4 15 -10 15 -5 0 -10 18 -10 40 0 45 17 55
22 13 l3 -28 24 24 c16 16 20 26 13 29 -7 2 -12 21 -12 43 0 28 -4 39 -15 39
-24 0 -17 17 9 24 14 3 28 16 32 29 4 12 11 25 17 28 5 4 0 12 -12 18 -11 7
-21 18 -21 27 0 8 -10 19 -22 24 -18 7 -10 9 35 9 60 1 73 14 42 45 -8 8 -15
24 -15 36 0 12 -7 28 -15 36 -8 9 -15 22 -15 30 0 8 7 14 15 14 8 0 15 -7 15
-15 0 -11 11 -15 40 -15 29 0 40 4 40 15 0 8 -7 15 -15 15 -11 0 -15 11 -15
40 0 36 2 40 26 40 54 0 77 65 27 76 -52 11 -48 14 17 12 113 -2 129 6 25 12
-62 4 24 7 227 8 l327 2 3 -393 c3 -359 5 -395 21 -420 33 -51 73 -67 165 -67
l82 0 0 583 0 583 63 -2 c34 -2 56 0 49 3 -16 6 31 53 54 53 8 0 20 12 27 27
6 16 21 37 33 48 49 48 71 196 39 259 -8 15 -15 35 -15 42 0 8 -4 14 -10 14
-5 0 -10 6 -10 14 0 34 -132 136 -176 136 -14 0 -22 4 -19 10 3 6 1 10 -4 10
-6 0 -11 -4 -11 -10 0 -5 -4 -10 -10 -10 -5 0 -9 3 -9 8 1 4 1 202 0 440 l-1
433 -132 -3 -133 -3 -3 -293 -2 -292 -282 2 -282 3 -9 34 c-8 31 -28 61 -41
61 -13 0 -5 -58 9 -64 24 -9 18 -36 -9 -36 -17 0 -26 7 -30 24 -3 14 -16 28
-28 32 -28 8 -43 24 -52 51 -4 12 -17 25 -29 29 -27 9 -43 24 -51 52 -4 12
-18 25 -32 28 -37 9 -29 24 14 24 30 0 39 -5 49 -27 7 -15 13 -33 13 -40 0 -8
12 -13 30 -13 26 0 30 -4 30 -26 0 -31 23 -28 28 4 2 13 -7 30 -22 43 -14 13
-26 31 -26 41 0 11 -7 18 -20 18 -11 0 -20 4 -20 8 0 5 -11 14 -25 20 -15 7
-25 20 -25 32 0 11 -7 20 -15 20 -8 0 -15 4 -15 8 0 5 -11 14 -25 20 -15 7
-25 20 -25 32 0 11 -6 20 -12 20 -7 0 -24 14 -38 31 -70 86 -149 161 -166 157
-22 -4 -31 -28 -10 -28 9 0 16 -8 16 -20 0 -12 12 -32 27 -46 14 -13 23 -27
19 -31 -3 -4 -12 -1 -18 5 -7 7 -20 12 -29 12 -10 0 -20 11 -23 25 -4 15 -16
27 -31 31 -14 3 -25 10 -25 15 0 5 -8 9 -18 9 -11 0 -24 12 -31 26 -7 16 -17
24 -26 20 -9 -3 -12 0 -9 8 3 8 -5 16 -20 20 -13 3 -28 15 -31 26 -4 12 -14
19 -23 18 -11 -2 -18 5 -20 20 -3 17 -10 22 -33 22 -20 0 -29 5 -29 16 0 9 -5
14 -12 12 -17 -6 -22 -28 -6 -28 13 0 38 -43 38 -67 0 -18 -47 -16 -54 2 -3 8
-15 15 -26 15 -15 0 -20 7 -20 25 0 20 -5 25 -24 25 -17 0 -25 8 -32 31 -5 18
-18 37 -29 43 -11 6 -24 17 -28 24 -4 6 -15 12 -23 12 -19 0 -36 17 -51 53 -8
16 -20 27 -33 27 -15 0 -20 7 -20 25 0 16 -6 25 -15 25 -17 0 -21 35 -4 45 5
4 21 -5 34 -19 13 -14 33 -26 44 -26 22 0 51 -35 51 -62 0 -14 8 -18 35 -18
24 0 35 5 35 15 0 18 -20 20 -20 3 -1 -20 -30 24 -30 44 0 10 -5 18 -11 18
-11 0 -39 24 -39 34 0 10 -39 46 -50 46 -5 0 -10 7 -10 15 0 8 -4 15 -10 15
-5 0 -10 11 -10 25 0 20 -5 25 -25 25 -18 0 -25 5 -25 19 0 25 -20 38 -30 21
-6 -9 -12 1 -21 29 -9 30 -9 45 -1 53 15 15 42 2 42 -22 0 -16 7 -20 30 -20
20 0 30 -5 30 -15 0 -8 4 -15 9 -15 28 0 19 56 -10 63 -11 3 -19 14 -19 26 0
12 -6 21 -15 21 -8 0 -15 9 -15 20 0 11 -8 24 -17 27 -23 9 -42 34 -43 55 0
20 22 36 28 20 2 -7 12 -12 23 -12 11 0 22 -7 25 -15 4 -8 12 -15 20 -15 8 0
14 -4 14 -10 0 -5 7 -10 15 -10 8 0 15 5 15 10 0 6 -7 10 -15 10 -11 0 -15 11
-15 40 0 33 -3 40 -20 40 -12 0 -20 7 -20 17 0 9 -13 28 -29 42 -15 14 -32 36
-35 48 -4 13 -18 26 -32 29 -38 10 -28 24 16 24 28 0 40 -4 40 -14 0 -21 44
-66 64 -66 9 0 16 -4 16 -10 0 -5 7 -10 15 -10 19 0 20 34 1 49 -11 9 -15 9
-19 -1 -3 -7 -6 -1 -6 14 -1 15 -6 30 -11 33 -6 4 -18 24 -27 46 -8 21 -19 39
-24 39 -5 0 -9 5 -9 11 0 6 -11 20 -25 31 -32 25 -32 38 0 38 16 0 25 -6 25
-15 0 -17 35 -20 45 -4 9 13 -23 99 -36 99 -5 0 -9 4 -9 9 0 12 -59 71 -71 71
-5 0 -9 7 -9 15 0 11 11 15 40 15 38 0 40 -2 40 -31 0 -29 1 -30 42 -27 42 3
68 28 29 28 -15 0 -26 11 -37 40 -10 26 -23 40 -34 40 -11 0 -24 14 -34 40 -9
22 -23 40 -31 40 -8 0 -15 5 -15 11 0 6 -7 17 -15 25 -8 9 -15 22 -15 30 0 8
7 14 15 14 9 0 15 -9 15 -25 0 -22 4 -25 40 -25 38 0 40 -2 40 -30 0 -28 2
-30 40 -30 29 0 40 4 40 15 0 8 -7 15 -15 15 -8 0 -22 18 -31 40 -9 22 -20 40
-25 40 -5 0 -9 4 -9 9 0 12 -59 71 -71 71 -5 0 -9 5 -9 11 0 6 -7 17 -15 25
-8 9 -15 22 -15 30 0 8 7 14 15 14 9 0 15 -9 15 -25 0 -22 4 -25 40 -25 29 0
40 -4 40 -15 0 -9 9 -15 25 -15 l25 0 -15 38 c-9 20 -20 39 -25 40 -6 2 -10 7
-10 12 0 11 -59 70 -71 70 -5 0 -9 5 -9 11 0 6 -7 17 -15 25 -19 20 -19 44 0
44 9 0 15 -9 15 -25 0 -22 4 -25 40 -25 29 0 40 -4 40 -15 0 -8 7 -15 15 -15
19 0 19 24 0 44 -8 8 -15 24 -15 36 0 22 -50 80 -69 80 -6 0 -11 5 -11 11 0 6
-7 17 -15 25 -19 20 -19 44 0 44 8 0 15 -7 15 -15 0 -11 11 -15 40 -15 36 0
40 2 40 26 0 26 -48 84 -69 84 -6 0 -11 7 -11 15 0 7 -6 18 -14 22 -18 11 -38
51 -31 63 10 16 45 12 45 -5 0 -8 6 -15 14 -15 8 0 16 -7 20 -15 3 -8 15 -15
26 -15 16 0 20 7 20 30 0 17 -5 30 -10 30 -6 0 -16 11 -22 25 l-11 25 -939 0
-938 0 0 -4000z m1840 3104 c0 -14 -3 -14 -15 -4 -8 7 -15 14 -15 16 0 2 7 4
15 4 8 0 15 -7 15 -16z m14 -689 c3 -8 1 -15 -4 -15 -6 0 -10 7 -10 15 0 8 2
15 4 15 2 0 6 -7 10 -15z m66 -230 c0 -16 -6 -25 -15 -25 -15 0 -21 31 -8 43
13 14 23 6 23 -18z m80 -280 c0 -8 -4 -15 -10 -15 -5 0 -10 7 -10 15 0 8 5 15
10 15 6 0 10 -7 10 -15z m80 -50 c0 -8 7 -15 16 -15 17 0 14 -22 -4 -28 -7 -2
-12 3 -12 12 0 9 -4 16 -10 16 -5 0 -10 7 -10 15 0 8 5 15 10 15 6 0 10 -7 10
-15z m80 -80 c0 -8 -7 -15 -15 -15 -16 0 -20 12 -8 23 11 12 23 8 23 -8z m30
-25 c0 -5 -4 -10 -10 -10 -5 0 -10 5 -10 10 0 6 5 10 10 10 6 0 10 -4 10 -10z
m237 -6 c-3 -3 -12 -4 -19 -1 -8 3 -5 6 6 6 11 1 17 -2 13 -5z m-194 -21 c-7
-2 -21 -2 -30 0 -10 3 -4 5 12 5 17 0 24 -2 18 -5z m145 0 c-16 -2 -40 -2 -55
0 -16 2 -3 4 27 4 30 0 43 -2 28 -4z m1547 -900 c-79 -24 -146 -80 -183 -154
-17 -35 -32 -59 -32 -53 0 21 -26 23 -27 3 -1 -12 3 -17 9 -13 7 5 9 0 6 -14
-4 -12 -3 -22 0 -22 4 0 8 -16 9 -35 1 -20 -3 -33 -8 -30 -15 10 -10 -7 6 -19
12 -9 13 -18 5 -46 -7 -24 -7 -37 2 -45 8 -7 9 -6 4 2 -4 7 -3 20 2 30 8 14
11 11 16 -14 4 -17 18 -41 31 -53 14 -13 22 -26 20 -30 -2 -4 16 -19 40 -35
45 -28 58 -42 29 -31 -9 3 -12 2 -8 -5 3 -6 16 -8 28 -5 11 3 28 1 36 -4 12
-8 11 -10 -5 -11 l-20 0 20 -9 c12 -5 -146 -8 -375 -8 -217 0 -388 2 -379 5
10 2 19 13 22 24 6 22 27 26 27 4 0 -10 10 -15 29 -15 16 0 41 -2 57 -4 16 -2
21 -1 12 1 -10 2 -18 10 -18 18 0 7 -7 15 -15 19 -8 3 -15 13 -15 22 0 9 -16
31 -35 50 -19 18 -35 37 -35 43 0 6 -4 11 -10 11 -13 0 -70 57 -70 70 0 5 -7
10 -16 10 -23 0 -11 24 14 28 15 2 22 -2 22 -12 0 -9 9 -16 20 -16 12 0 32
-12 45 -26 25 -27 45 -25 45 4 -1 21 -20 46 -42 55 -10 3 -18 14 -18 23 0 9
-16 31 -35 50 -19 18 -35 37 -35 43 0 6 -7 11 -16 11 -27 0 -9 25 20 28 22 3
36 -5 66 -38 37 -40 60 -46 60 -14 0 18 -28 62 -57 90 -13 12 -23 29 -23 39 0
9 -9 19 -20 22 -11 3 -20 13 -20 23 0 11 -9 20 -22 23 -13 2 22 6 77 8 l100 3
-110 6 c-60 3 99 7 355 7 430 2 461 0 415 -14z m232 -189 c-3 -3 -12 -4 -19
-1 -8 3 -5 6 6 6 11 1 17 -2 13 -5z m33 -11 c0 -27 38 -83 55 -83 34 0 39 -67
8 -98 -16 -16 -18 0 -4 27 14 26 -2 42 -48 48 -22 3 -41 10 -41 14 0 5 5 9 11
9 8 0 10 17 7 50 -3 28 -1 50 3 50 5 0 9 -8 9 -17z m-443 -38 c0 -8 -4 -12 -9
-9 -5 3 -6 10 -3 15 9 13 12 11 12 -6z m158 -25 c3 -6 -1 -7 -9 -4 -18 7 -21
14 -7 14 6 0 13 -4 16 -10z m85 0 c0 -5 -2 -10 -4 -10 -3 0 -8 5 -11 10 -3 6
-1 10 4 10 6 0 11 -4 11 -10z m63 -40 c-3 -12 -8 -19 -11 -16 -5 6 5 36 12 36
2 0 2 -9 -1 -20z m-223 -34 c0 -2 -7 -7 -16 -10 -8 -3 -12 -2 -9 4 6 10 25 14
25 6z m300 0 c0 -2 -7 -7 -16 -10 -8 -3 -12 -2 -9 4 6 10 25 14 25 6z m-129
-49 c-10 -9 -11 -8 -5 6 3 10 9 15 12 12 3 -3 0 -11 -7 -18z m229 8 c0 -18
-33 -65 -44 -65 -8 0 -23 -3 -33 -7 -16 -6 -16 -5 -4 10 7 9 20 17 27 17 8 0
14 8 14 18 0 10 3 22 7 25 8 8 33 9 33 2z m-440 -15 c8 -5 11 -10 5 -10 -5 0
-17 5 -25 10 -8 5 -10 10 -5 10 6 0 17 -5 25 -10z m190 -10 c0 -5 -5 -10 -11
-10 -5 0 -7 5 -4 10 3 6 8 10 11 10 2 0 4 -4 4 -10z m-145 -20 c13 -6 15 -9 5
-9 -8 0 -22 4 -30 9 -18 12 -2 12 25 0z m45 0 c0 -5 -2 -10 -4 -10 -3 0 -8 5
-11 10 -3 6 -1 10 4 10 6 0 11 -4 11 -10z m150 -37 c-4 -42 -5 -44 -8 -15 -3
30 2 62 10 62 2 0 1 -21 -2 -47z m-882 -55 c-6 -18 -25 -20 -31 -3 -5 10 0 15
14 15 12 0 19 -5 17 -12z m852 -78 c0 -5 -9 -10 -19 -10 -11 0 -23 5 -26 10
-4 6 5 10 19 10 14 0 26 -4 26 -10z m-897 -7 c-13 -2 -33 -2 -45 0 -13 2 -3 4
22 4 25 0 35 -2 23 -4z m-143 -719 c0 -8 -4 -12 -10 -9 -5 3 -10 10 -10 16 0
5 5 9 10 9 6 0 10 -7 10 -16z m-389 -617 c-10 -9 -11 -8 -5 6 3 10 9 15 12 12
3 -3 0 -11 -7 -18z m165 7 c18 -14 18 -14 -6 -3 -31 14 -36 19 -24 19 6 0 19
-7 30 -16z m144 -35 c0 -6 -4 -7 -10 -4 -5 3 -10 11 -10 16 0 6 5 7 10 4 6 -3
10 -11 10 -16z m-132 -14 c-3 -3 -9 2 -12 12 -6 14 -5 15 5 6 7 -7 10 -15 7
-18z m32 -56 c-6 -10 -13 -19 -16 -19 -3 0 -2 5 2 11 4 7 7 26 6 43 0 29 1 29
9 8 6 -15 5 -31 -1 -43z m77 29 c-3 -8 -6 -5 -6 6 -1 11 2 17 5 13 3 -3 4 -12
1 -19z m20 -30 c-3 -7 -5 -2 -5 12 0 14 2 19 5 13 2 -7 2 -19 0 -25z m-136
-15 c-12 -20 -14 -14 -5 12 4 9 9 14 11 11 3 -2 0 -13 -6 -23z m89 -40 c-11
-17 -11 -17 -6 0 3 10 7 26 7 35 1 15 2 15 6 0 2 -10 -1 -25 -7 -35z m-40 27
c0 -5 -5 -10 -11 -10 -5 0 -7 5 -4 10 3 6 8 10 11 10 2 0 4 -4 4 -10z m-20
-35 c0 -2 -9 -9 -19 -15 -14 -7 -22 -7 -27 2 -4 6 -3 8 2 5 6 -3 16 -2 24 4
17 10 20 11 20 4z m-439 -28 c-10 -9 -11 -8 -5 6 3 10 9 15 12 12 3 -3 0 -11
-7 -18z m293 -16 c-2 -3 -12 3 -22 13 -16 17 -16 18 5 5 12 -7 20 -15 17 -18z
m-167 3 c-3 -3 -12 -4 -19 -1 -8 3 -5 6 6 6 11 1 17 -2 13 -5z m-180 -10 c-3
-3 -12 -4 -19 -1 -8 3 -5 6 6 6 11 1 17 -2 13 -5z m146 -11 c-7 -2 -19 -2 -25
0 -7 3 -2 5 12 5 14 0 19 -2 13 -5z m226 -9 c2 -2 -7 -4 -22 -4 -14 0 -29 5
-32 10 -6 10 42 4 54 -6z m-352 0 c-3 -3 -12 -4 -19 -1 -8 3 -5 6 6 6 11 1 17
-2 13 -5z m178 -12 c-3 -3 -11 0 -18 7 -9 10 -8 11 6 5 10 -3 15 -9 12 -12z
m-335 -498 c0 -9 -5 -14 -12 -12 -18 6 -21 28 -4 28 9 0 16 -7 16 -16z m19
-1186 c0 -28 -2 -30 -9 -13 -12 28 -12 45 0 45 6 0 10 -15 9 -32z m29 -170
c-7 -19 -38 -22 -38 -4 0 10 9 16 21 16 12 0 19 -5 17 -12z m0 -160 c-6 -18
-28 -21 -28 -4 0 9 7 16 16 16 9 0 14 -5 12 -12z m0 -320 c-6 -18 -28 -21 -28
-4 0 9 7 16 16 16 9 0 14 -5 12 -12z"/>
<path d="M3303 4823 c15 -2 39 -2 55 0 15 2 2 4 -28 4 -30 0 -43 -2 -27 -4z"/>
<path d="M3488 4823 c6 -2 18 -2 25 0 6 3 1 5 -13 5 -14 0 -19 -2 -12 -5z"/>
<path d="M3668 4823 c12 -2 30 -2 40 0 9 3 -1 5 -23 4 -22 0 -30 -2 -17 -4z"/>
<path d="M3810 4820 c19 -4 26 -8 16 -9 -15 -1 -17 -4 -8 -13 9 -9 16 -8 29 4
10 8 25 18 33 21 8 3 -12 5 -45 5 -51 -1 -55 -2 -25 -8z"/>
<path d="M3157 4803 c44 -4 73 -30 73 -65 0 -10 7 -18 15 -18 9 0 19 -8 22
-17 6 -15 7 -15 14 3 4 10 8 26 8 34 1 12 -1 13 -8 1 -7 -11 -11 -10 -20 7 -6
11 -11 30 -11 41 0 19 -5 21 -67 19 -49 -1 -56 -3 -26 -5z"/>
<path d="M3673 4803 c9 -2 25 -2 35 0 9 3 1 5 -18 5 -19 0 -27 -2 -17 -5z"/>
<path d="M3787 4776 c-4 -11 -10 -16 -13 -13 -11 10 -34 -21 -34 -45 0 -21 2
-21 19 8 11 18 25 34 32 36 6 2 10 10 7 18 -3 10 -6 9 -11 -4z"/>
<path d="M3266 4545 c4 -8 8 -15 10 -15 2 0 4 7 4 15 0 8 -4 15 -10 15 -5 0
-7 -7 -4 -15z"/>
<path d="M3360 4465 c0 -8 5 -15 10 -15 6 0 10 7 10 15 0 8 -4 15 -10 15 -5 0
-10 -7 -10 -15z"/>
<path d="M3692 4460 c0 -14 2 -19 5 -12 2 6 2 18 0 25 -3 6 -5 1 -5 -13z"/>
<path d="M3250 4392 c0 -13 40 -43 50 -37 6 4 10 15 10 26 0 14 -7 19 -30 19
-16 0 -30 -3 -30 -8z"/>
<path d="M3680 4308 c0 -23 12 -23 32 1 15 18 14 19 -8 17 -16 -1 -24 -7 -24
-18z"/>
<path d="M3365 4310 c3 -5 10 -10 16 -10 5 0 9 5 9 10 0 6 -7 10 -16 10 -8 0
-12 -4 -9 -10z"/>
<path d="M3752 4273 c-7 -2 -17 -13 -22 -24 -10 -17 -7 -19 32 -18 24 1 33 4
20 6 -17 3 -21 9 -17 24 4 10 5 19 3 18 -2 0 -9 -3 -16 -6z"/>
<path d="M3448 4233 c6 -2 18 -2 25 0 6 3 1 5 -13 5 -14 0 -19 -2 -12 -5z"/>
<path d="M1970 7830 c0 -5 7 -10 15 -10 8 0 15 5 15 10 0 6 -7 10 -15 10 -8 0
-15 -4 -15 -10z"/>
<path d="M2000 7664 c0 -8 5 -12 10 -9 6 3 10 10 10 16 0 5 -4 9 -10 9 -5 0
-10 -7 -10 -16z"/>
<path d="M2000 7456 c0 -9 5 -16 10 -16 6 0 10 4 10 9 0 6 -4 13 -10 16 -5 3
-10 -1 -10 -9z"/>
<path d="M2000 7296 c0 -9 5 -16 10 -16 6 0 10 4 10 9 0 6 -4 13 -10 16 -5 3
-10 -1 -10 -9z"/>
<path d="M2000 7136 c0 -9 5 -16 10 -16 6 0 10 4 10 9 0 6 -4 13 -10 16 -5 3
-10 -1 -10 -9z"/>
<path d="M2020 6970 c0 -5 5 -10 10 -10 6 0 10 5 10 10 0 6 -4 10 -10 10 -5 0
-10 -4 -10 -10z"/>
<path d="M2000 6808 c0 -18 5 -28 15 -28 19 0 19 11 0 36 -14 18 -14 18 -15
-8z"/>
<path d="M2057 6263 c-14 -13 -6 -23 18 -23 28 0 34 15 9 24 -19 7 -19 7 -27
-1z"/>
<path d="M2197 5943 c-12 -11 -8 -23 8 -23 9 0 18 -7 21 -15 7 -16 30 -20 38
-7 3 5 2 18 -1 30 -4 16 -13 22 -32 22 -15 0 -31 -3 -34 -7z"/>
<path d="M2480 5843 c0 -2 7 -15 16 -28 9 -14 14 -32 10 -40 -4 -11 2 -15 24
-15 21 0 30 -5 30 -16 0 -9 5 -14 12 -12 22 8 19 24 -7 36 -16 7 -28 23 -31
41 -4 20 -13 30 -30 34 -13 2 -24 2 -24 0z"/>
<path d="M4078 4843 c12 -2 32 -2 45 0 12 2 2 4 -23 4 -25 0 -35 -2 -22 -4z"/>
<path d="M4168 4843 c7 -3 16 -2 19 1 4 3 -2 6 -13 5 -11 0 -14 -3 -6 -6z"/>
<path d="M4153 4815 c0 -10 6 -14 14 -10 8 3 19 5 24 5 6 0 7 5 4 10 -10 16
-42 12 -42 -5z"/>
<path d="M3715 3930 c3 -5 8 -10 11 -10 2 0 4 5 4 10 0 6 -5 10 -11 10 -5 0
-7 -4 -4 -10z"/>
<path d="M3035 2960 c-3 -4 7 -11 21 -14 35 -9 39 -4 8 11 -13 6 -26 8 -29 3z"/>
<path d="M3299 2929 c-11 -7 -10 -12 9 -25 22 -15 23 -20 16 -102 -4 -55 -12
-93 -22 -104 -8 -10 -11 -18 -6 -19 79 -7 97 -2 69 21 -10 9 -15 32 -15 74 l0
61 37 -77 c20 -43 40 -78 44 -78 9 0 32 37 35 56 1 5 13 32 27 60 l26 49 1
-72 c0 -58 -3 -74 -17 -82 -14 -8 -5 -10 37 -10 46 0 52 2 39 12 -12 9 -19 38
-24 106 -7 91 -7 95 16 112 l24 19 -33 0 c-30 0 -35 -5 -56 -50 -13 -27 -26
-46 -30 -43 -4 4 -4 0 0 -10 4 -11 1 -17 -7 -17 -7 0 -10 -3 -6 -6 3 -4 -1
-20 -10 -38 l-16 -30 -28 59 c-15 33 -28 67 -29 75 -1 19 -30 55 -51 63 -9 3
-22 1 -30 -4z"/>
<path d="M4170 2921 c0 -5 7 -11 15 -15 12 -4 15 -26 15 -105 0 -85 -3 -102
-17 -110 -14 -8 2 -10 58 -11 62 0 81 4 100 20 20 16 21 19 7 20 -9 0 -20 -4
-23 -10 -3 -5 -26 -10 -51 -10 l-44 0 0 105 c0 63 4 105 10 105 6 0 10 5 10
10 0 6 -18 10 -40 10 -22 0 -40 -4 -40 -9z"/>
<path d="M4503 2916 c14 -11 17 -30 17 -113 0 -64 -4 -103 -12 -111 -9 -9 5
-12 64 -12 56 0 81 4 92 16 25 24 19 38 -9 20 -13 -9 -42 -16 -65 -16 l-40 0
0 44 c0 36 4 46 20 51 13 4 31 0 45 -9 25 -16 25 -16 25 19 0 34 -1 35 -16 20
-9 -9 -28 -15 -43 -13 -23 3 -26 8 -29 51 l-3 47 45 0 c34 0 46 -4 46 -15 0
-8 5 -15 10 -15 6 0 10 11 10 25 0 25 -1 25 -87 25 -75 -1 -85 -3 -70 -14z"/>
<path d="M4890 2913 c-47 -32 -54 -45 -58 -104 -4 -56 -3 -60 31 -94 29 -29
42 -35 79 -35 45 0 114 28 111 46 -1 6 2 27 7 47 l8 37 -37 -1 c-20 0 -30 -3
-23 -6 6 -2 12 -22 12 -43 0 -63 -52 -88 -111 -53 -37 22 -53 62 -46 120 5 51
31 78 78 85 36 6 58 -4 93 -38 l29 -29 -7 30 c-4 16 -8 30 -9 31 -1 1 -17 6
-36 13 -48 16 -93 14 -121 -6z"/>
<path d="M5299 2880 c-12 -29 -39 -85 -59 -126 l-36 -74 29 0 c24 0 27 2 18
14 -10 11 -9 21 4 45 14 28 20 31 61 31 41 0 46 -3 59 -32 9 -23 10 -37 3 -45
-8 -10 -2 -13 27 -13 35 0 37 1 23 18 -8 9 -32 63 -53 120 -21 57 -42 105 -46
108 -5 3 -18 -18 -30 -46z m39 -47 c6 -17 8 -34 5 -37 -9 -9 -65 -7 -61 2 2 4
10 24 18 44 15 41 22 40 38 -9z"/>
<path d="M5590 2921 c0 -5 5 -11 11 -13 13 -4 18 -185 5 -210 -7 -16 -1 -18
62 -18 51 0 75 4 86 16 22 21 20 27 -4 14 -23 -13 -82 -16 -98 -6 -15 9 -16
192 -2 201 21 13 9 25 -25 25 -19 0 -35 -4 -35 -9z"/>
<path d="M3068 2893 c7 -3 16 -2 19 1 4 3 -2 6 -13 5 -11 0 -14 -3 -6 -6z"/>
<path d="M2970 2709 c0 -5 5 -7 10 -4 6 3 10 8 10 11 0 2 -4 4 -10 4 -5 0 -10
-5 -10 -11z"/>
<path d="M2882 2651 c2 -14 9 -26 16 -29 17 -5 15 10 -3 34 -15 18 -15 18 -13
-5z"/>
<path d="M2979 2656 c14 -8 32 -11 40 -8 12 5 10 8 -9 13 -42 12 -56 9 -31 -5z"/>
<path d="M2320 2016 c0 -9 5 -16 10 -16 6 0 10 4 10 9 0 6 -4 13 -10 16 -5 3
-10 -1 -10 -9z"/>
<path d="M2320 1356 c0 -9 5 -16 10 -16 6 0 10 4 10 9 0 6 -4 13 -10 16 -5 3
-10 -1 -10 -9z"/>
<path d="M2320 1025 c0 -8 5 -15 10 -15 6 0 10 7 10 15 0 8 -4 15 -10 15 -5 0
-10 -7 -10 -15z"/>
<path d="M2306 865 c4 -8 12 -15 20 -15 8 0 14 7 14 15 0 8 -9 15 -20 15 -13
0 -18 -5 -14 -15z"/>
</g>
</svg>
